<svg width="169" height="34" viewBox="0 0 169 34" fill="none" xmlns="http://www.w3.org/2000/svg">
<mask id="mask0_3_376" style="mask-type:luminance" maskUnits="userSpaceOnUse" x="0" y="0" width="34" height="34">
<path d="M34 0H0V34H34V0Z" fill="white"/>
</mask>
<g mask="url(#mask0_3_376)">
<path fill-rule="evenodd" clip-rule="evenodd" d="M17 5.71963C15.7715 5.71963 14.7757 6.71548 14.7757 7.94393H9.05607C9.05607 3.55662 12.6127 0 17 0C21.3874 0 24.9439 3.55662 24.9439 7.94393C24.9439 12.3312 21.3874 15.8878 17 15.8878V10.1682C18.2284 10.1682 19.2243 9.17237 19.2243 7.94393C19.2243 6.71548 18.2284 5.71963 17 5.71963ZM28.2803 17C28.2803 15.7715 27.2845 14.7757 26.0561 14.7757V9.05607C30.4434 9.05607 34 12.6127 34 17C34 21.3874 30.4434 24.9439 26.0561 24.9439C21.6687 24.9439 18.1121 21.3874 18.1121 17H23.8318C23.8318 18.2284 24.8277 19.2243 26.0561 19.2243C27.2845 19.2243 28.2803 18.2284 28.2803 17ZM7.94393 19.2243C6.71548 19.2243 5.71963 18.2284 5.71963 17C5.71963 15.7715 6.71548 14.7757 7.94393 14.7757C9.17237 14.7757 10.1682 15.7715 10.1682 17H15.8878C15.8878 12.6127 12.3312 9.05607 7.94393 9.05607C3.55662 9.05607 0 12.6127 0 17C0 21.3874 3.55662 24.9439 7.94393 24.9439V19.2243ZM17 28.2803C18.2284 28.2803 19.2243 27.2845 19.2243 26.0561H24.9439C24.9439 30.4434 21.3874 34 17 34C12.6127 34 9.05607 30.4434 9.05607 26.0561C9.05607 21.6687 12.6127 18.1121 17 18.1121V23.8318C15.7715 23.8318 14.7757 24.8277 14.7757 26.0561C14.7757 27.2845 15.7715 28.2803 17 28.2803Z" fill="#C58DE7"/>
</g>
<path d="M48.776 25.5V7.98H56.096L61.928 21.948H62.768L62.288 22.38V7.98H66.464V25.5H59.096L53.264 11.532H52.424L52.904 11.1V25.5H48.776ZM76.5384 25.98C74.8584 25.98 73.4344 25.668 72.2664 25.044C71.1144 24.42 70.2344 23.54 69.6264 22.404C69.0184 21.252 68.7144 19.892 68.7144 18.324V7.98H73.1784V18.42C73.1784 19.108 73.3064 19.708 73.5624 20.22C73.8344 20.732 74.2184 21.124 74.7144 21.396C75.2104 21.668 75.8184 21.804 76.5384 21.804C77.2584 21.804 77.8664 21.668 78.3624 21.396C78.8584 21.124 79.2344 20.74 79.4904 20.244C79.7464 19.732 79.8744 19.124 79.8744 18.42V7.98H84.3384V18.324C84.3384 19.892 84.0344 21.252 83.4264 22.404C82.8344 23.54 81.9544 24.42 80.7864 25.044C79.6344 25.668 78.2184 25.98 76.5384 25.98ZM86.606 25.5V7.98H92.798L96.398 17.22H96.878L100.454 7.98H106.766V25.5H102.35V10.548L103.046 10.596L98.534 21.972H94.478L89.942 10.596L90.686 10.548V25.5H86.606ZM113.205 25.644V22.236H117.069C117.725 22.236 118.213 22.068 118.533 21.732C118.853 21.396 119.013 20.908 119.013 20.268C119.013 19.628 118.853 19.148 118.533 18.828C118.213 18.492 117.725 18.324 117.069 18.324H113.205V15.684H116.925C118.157 15.684 119.261 15.836 120.237 16.14C121.213 16.428 121.981 16.908 122.541 17.58C123.101 18.252 123.381 19.148 123.381 20.268V20.604C123.381 21.66 123.133 22.564 122.637 23.316C122.141 24.068 121.413 24.644 120.453 25.044C119.493 25.444 118.317 25.644 116.925 25.644H113.205ZM109.365 25.644V7.836H113.685V25.644H109.365ZM113.205 17.652V15.012H116.421C117.077 15.012 117.549 14.852 117.837 14.532C118.141 14.196 118.293 13.732 118.293 13.14C118.293 12.532 118.141 12.068 117.837 11.748C117.549 11.412 117.077 11.244 116.421 11.244H113.205V7.836H116.229C118.277 7.836 119.861 8.268 120.981 9.132C122.101 9.98 122.661 11.196 122.661 12.78V13.14C122.661 14.244 122.373 15.132 121.797 15.804C121.237 16.46 120.469 16.932 119.493 17.22C118.533 17.508 117.445 17.652 116.229 17.652H113.205ZM125.116 25.5V7.98H129.436V25.5H125.116ZM128.956 25.5V21.852H136.348V25.5H128.956ZM128.956 18.42V14.772H135.844V18.42H128.956ZM128.956 11.628V7.98H136.204V11.628H128.956ZM138.359 25.5V7.836H142.823V25.5H138.359ZM148.919 25.5L143.999 18.06H148.847L154.055 25.5H148.919ZM141.695 20.124V16.692H145.895C146.423 16.692 146.879 16.588 147.263 16.38C147.647 16.172 147.943 15.876 148.151 15.492C148.375 15.108 148.487 14.66 148.487 14.148C148.487 13.62 148.375 13.164 148.151 12.78C147.943 12.396 147.647 12.1 147.263 11.892C146.879 11.684 146.423 11.58 145.895 11.58H141.695V7.836H145.631C147.151 7.836 148.463 8.068 149.567 8.532C150.671 8.98 151.519 9.652 152.111 10.548C152.703 11.428 152.999 12.524 152.999 13.836V14.22C152.999 15.532 152.695 16.628 152.087 17.508C151.495 18.372 150.647 19.028 149.543 19.476C148.455 19.908 147.151 20.124 145.631 20.124H141.695ZM161.287 25.98C159.655 25.98 158.279 25.724 157.159 25.212C156.055 24.7 155.215 24.004 154.639 23.124C154.079 22.228 153.799 21.204 153.799 20.052H158.119C158.119 20.468 158.231 20.852 158.455 21.204C158.695 21.54 159.047 21.804 159.511 21.996C159.975 22.188 160.567 22.284 161.287 22.284C161.911 22.284 162.439 22.204 162.871 22.044C163.319 21.884 163.655 21.66 163.879 21.372C164.119 21.084 164.239 20.74 164.239 20.34C164.239 19.828 164.023 19.436 163.591 19.164C163.159 18.876 162.431 18.692 161.407 18.612L160.279 18.516C158.471 18.356 157.031 17.788 155.959 16.812C154.887 15.836 154.351 14.54 154.351 12.924C154.351 11.772 154.615 10.788 155.143 9.972C155.687 9.156 156.447 8.532 157.423 8.1C158.399 7.668 159.551 7.452 160.879 7.452C162.319 7.452 163.535 7.692 164.527 8.172C165.535 8.652 166.303 9.332 166.831 10.212C167.359 11.076 167.623 12.084 167.623 13.236H163.303C163.303 12.852 163.207 12.5 163.015 12.18C162.823 11.86 162.543 11.612 162.175 11.436C161.823 11.244 161.391 11.148 160.879 11.148C160.399 11.148 159.991 11.228 159.655 11.388C159.335 11.532 159.087 11.74 158.911 12.012C158.751 12.284 158.671 12.588 158.671 12.924C158.671 13.372 158.823 13.756 159.127 14.076C159.431 14.396 159.959 14.588 160.711 14.652L161.839 14.748C163.151 14.86 164.311 15.148 165.319 15.612C166.327 16.06 167.119 16.676 167.695 17.46C168.271 18.244 168.559 19.204 168.559 20.34C168.559 21.476 168.263 22.468 167.671 23.316C167.095 24.164 166.263 24.82 165.175 25.284C164.103 25.748 162.807 25.98 161.287 25.98Z" fill="white"/>
</svg>
